<?xml version="1.0" encoding="UTF-8"?>
<svg width="123px" height="70px" viewBox="0 0 123 70" version="1.1" xmlns="http://www.w3.org/2000/svg" xmlns:xlink="http://www.w3.org/1999/xlink">
    <title>icon_ux</title>
    <g id="0715调整" stroke="none" stroke-width="1" fill="none" fill-rule="evenodd">
        <g id="16:9" transform="translate(-76.000000, -142.000000)" fill="#2D2E2E">
            <g id="编组-2" transform="translate(76.000000, 142.000000)">
                <path d="M123,-7.10542736e-15 L104.295326,-7.10542736e-15 C104.295326,-7.10542736e-15 88.5482319,19.2803804 88.2099231,19.2907437 L79.3634103,-7.10542736e-15 L63.8287425,-7.10542736e-15 L77.708582,31.6335035 L46,69.9792245 L52.0869358,69.9792245 C60.8901765,70.4041222 68.9577923,64.1848118 70.0330373,62.9276069 C75.9337721,55.8572057 84.5088511,46.0877974 84.5088511,46.0877974 C84.7088204,46.171352 94.9590525,69.9792245 94.9590525,69.9792245 L111.051668,69.9792245 L94.5440341,34.0611201 L123,-7.10542736e-15 Z M56,0.0374333782 L49.2746084,0.0374333782 C43.5535575,-0.173419073 40.4421088,3.08444533 40.099558,8.15395917 C39.1308322,19.5581015 37.0081831,41.9770207 37.0081831,41.9770207 C36.704485,47.2075844 34.774804,54.8616578 25.2533176,54.7148372 C18.9637231,53.8410284 14.3771692,49.7449285 15.4371987,41.3127708 C15.4371987,41.3127708 17.3254369,20.6149509 18.3343104,8.53297615 C18.8711243,4.70335234 16.6973192,0.483716173 11.7695097,0.0374333782 C6.84170013,-0.408849417 3.27308535,3.16076616 3.06651883,9.38350061 C1.93655461,20.7093818 0.0988248495,41.7118382 0.0988248495,41.7118382 C-0.965737424,53.0487148 6.59174816,67.0037837 21.7403916,69.6297376 C37.8189082,72.3792277 50.4596139,59.3186646 51.5429549,46.9255855 L56,0.0374333782 Z" id="Fill-1"></path>
            </g>
        </g>
    </g>
</svg>