<svg t="1642403752155" class="icon" viewBox="0 0 1024 1024" version="1.1" xmlns="http://www.w3.org/2000/svg" p-id="4200" width="200" height="200">
    <path d="M324.266667 341.333333h-307.2c-10.24 0-17.066667-6.826667-17.066667-17.066666v-307.2C0 6.826667 6.826667 0 17.066667 0h307.2c10.24 0 17.066667 6.826667 17.066666 17.066667v307.2c0 10.24-6.826667 17.066667-17.066666 17.066666zM34.133333 307.2h273.066667V34.133333H34.133333v273.066667zM324.266667 477.866667c-10.24 0-17.066667-6.826667-17.066667-17.066667V409.6H51.2c-10.24 0-17.066667-6.826667-17.066667-17.066667s6.826667-17.066667 17.066667-17.066666h273.066667c10.24 0 17.066667 6.826667 17.066666 17.066666v68.266667c0 10.24-6.826667 17.066667-17.066666 17.066667zM290.133333 648.533333h-273.066666c-10.24 0-17.066667-6.826667-17.066667-17.066666v-68.266667c0-10.24 6.826667-17.066667 17.066667-17.066667s17.066667 6.826667 17.066666 17.066667V614.4h256c10.24 0 17.066667 6.826667 17.066667 17.066667s-6.826667 17.066667-17.066667 17.066666zM1006.933333 1024h-102.4c-10.24 0-17.066667-6.826667-17.066666-17.066667s6.826667-17.066667 17.066666-17.066666H989.866667v-290.133334c0-10.24 6.826667-17.066667 17.066666-17.066666s17.066667 6.826667 17.066667 17.066666v307.2c0 10.24-6.826667 17.066667-17.066667 17.066667zM392.533333 989.866667c-10.24 0-17.066667-6.826667-17.066666-17.066667v-273.066667c0-10.24 6.826667-17.066667 17.066666-17.066666h68.266667c10.24 0 17.066667 6.826667 17.066667 17.066666s-6.826667 17.066667-17.066667 17.066667H409.6v256c0 10.24-6.826667 17.066667-17.066667 17.066667zM802.133333 1024h-273.066666c-10.24 0-17.066667-6.826667-17.066667-17.066667s6.826667-17.066667 17.066667-17.066666h273.066666c10.24 0 17.066667 6.826667 17.066667 17.066666s-6.826667 17.066667-17.066667 17.066667zM597.333333 955.733333h-136.533333c-10.24 0-17.066667-6.826667-17.066667-17.066666s6.826667-17.066667 17.066667-17.066667h136.533333c10.24 0 17.066667 6.826667 17.066667 17.066667s-6.826667 17.066667-17.066667 17.066666z" fill="" p-id="4201"></path>
    <path d="M938.666667 955.733333h-136.533334c-10.24 0-17.066667-6.826667-17.066666-17.066666s6.826667-17.066667 17.066666-17.066667h136.533334c10.24 0 17.066667 6.826667 17.066666 17.066667s-6.826667 17.066667-17.066666 17.066666zM904.533333 716.8h-102.4c-10.24 0-17.066667-6.826667-17.066666-17.066667s6.826667-17.066667 17.066666-17.066666h102.4c10.24 0 17.066667 6.826667 17.066667 17.066666s-6.826667 17.066667-17.066667 17.066667zM733.866667 716.8h-68.266667c-10.24 0-17.066667-6.826667-17.066667-17.066667s6.826667-17.066667 17.066667-17.066666h68.266667c10.24 0 17.066667 6.826667 17.066666 17.066666s-6.826667 17.066667-17.066666 17.066667zM597.333333 716.8h-68.266666c-10.24 0-17.066667-6.826667-17.066667-17.066667s6.826667-17.066667 17.066667-17.066666h68.266666c10.24 0 17.066667 6.826667 17.066667 17.066666s-6.826667 17.066667-17.066667 17.066667zM802.133333 853.333333c-10.24 0-17.066667-6.826667-17.066666-17.066666v-34.133334c0-10.24 6.826667-17.066667 17.066666-17.066666s17.066667 6.826667 17.066667 17.066666v34.133334c0 10.24-6.826667 17.066667-17.066667 17.066666zM904.533333 853.333333c-10.24 0-17.066667-6.826667-17.066666-17.066666v-34.133334c0-10.24 6.826667-17.066667 17.066666-17.066666s17.066667 6.826667 17.066667 17.066666v34.133334c0 10.24-6.826667 17.066667-17.066667 17.066666zM494.933333 853.333333c-10.24 0-17.066667-6.826667-17.066666-17.066666v-34.133334c0-10.24 6.826667-17.066667 17.066666-17.066666s17.066667 6.826667 17.066667 17.066666v34.133334c0 10.24-6.826667 17.066667-17.066667 17.066666zM631.466667 853.333333c-10.24 0-17.066667-6.826667-17.066667-17.066666v-34.133334c0-10.24 6.826667-17.066667 17.066667-17.066666s17.066667 6.826667 17.066666 17.066666v34.133334c0 10.24-6.826667 17.066667-17.066666 17.066666zM119.466667 512h-68.266667c-10.24 0-17.066667-6.826667-17.066667-17.066667s6.826667-17.066667 17.066667-17.066666h68.266667c10.24 0 17.066667 6.826667 17.066666 17.066666s-6.826667 17.066667-17.066666 17.066667zM256 546.133333h-68.266667c-10.24 0-17.066667-6.826667-17.066666-17.066666s6.826667-17.066667 17.066666-17.066667h68.266667c10.24 0 17.066667 6.826667 17.066667 17.066667s-6.826667 17.066667-17.066667 17.066666zM1006.933333 614.4h-341.333333c-10.24 0-17.066667-6.826667-17.066667-17.066667s6.826667-17.066667 17.066667-17.066666h341.333333c10.24 0 17.066667 6.826667 17.066667 17.066666s-6.826667 17.066667-17.066667 17.066667zM1006.933333 409.6h-341.333333c-10.24 0-17.066667-6.826667-17.066667-17.066667s6.826667-17.066667 17.066667-17.066666h341.333333c10.24 0 17.066667 6.826667 17.066667 17.066666s-6.826667 17.066667-17.066667 17.066667zM631.466667 34.133333h-238.933334c-10.24 0-17.066667-6.826667-17.066666-17.066666s6.826667-17.066667 17.066666-17.066667h238.933334c10.24 0 17.066667 6.826667 17.066666 17.066667s-6.826667 17.066667-17.066666 17.066666zM392.533333 341.333333c-10.24 0-17.066667-6.826667-17.066666-17.066666v-204.8c0-10.24 6.826667-17.066667 17.066666-17.066667s17.066667 6.826667 17.066667 17.066667v204.8c0 10.24-6.826667 17.066667-17.066667 17.066666zM494.933333 170.666667c-10.24 0-17.066667-6.826667-17.066666-17.066667v-68.266667c0-10.24 6.826667-17.066667 17.066666-17.066666s17.066667 6.826667 17.066667 17.066666v68.266667c0 10.24-6.826667 17.066667-17.066667 17.066667zM529.066667 307.2c-10.24 0-17.066667-6.826667-17.066667-17.066667v-68.266666c0-10.24 6.826667-17.066667 17.066667-17.066667s17.066667 6.826667 17.066666 17.066667v68.266666c0 10.24-6.826667 17.066667-17.066666 17.066667z" fill="" p-id="4202"></path>
    <path d="M631.466667 307.2c-10.24 0-17.066667-6.826667-17.066667-17.066667v-273.066666c0-10.24 6.826667-17.066667 17.066667-17.066667s17.066667 6.826667 17.066666 17.066667v273.066666c0 10.24-6.826667 17.066667-17.066666 17.066667zM836.266667 614.4c-10.24 0-17.066667-6.826667-17.066667-17.066667v-68.266666c0-10.24 6.826667-17.066667 17.066667-17.066667s17.066667 6.826667 17.066666 17.066667v68.266666c0 10.24-6.826667 17.066667-17.066666 17.066667zM1006.933333 512c-10.24 0-17.066667-6.826667-17.066666-17.066667v-34.133333c0-10.24 6.826667-17.066667 17.066666-17.066667s17.066667 6.826667 17.066667 17.066667v34.133333c0 10.24-6.826667 17.066667-17.066667 17.066667zM665.6 512c-10.24 0-17.066667-6.826667-17.066667-17.066667v-34.133333c0-10.24 6.826667-17.066667 17.066667-17.066667s17.066667 6.826667 17.066667 17.066667v34.133333c0 10.24-6.826667 17.066667-17.066667 17.066667zM733.866667 512c-10.24 0-17.066667-6.826667-17.066667-17.066667v-34.133333c0-10.24 6.826667-17.066667 17.066667-17.066667s17.066667 6.826667 17.066666 17.066667v34.133333c0 10.24-6.826667 17.066667-17.066666 17.066667zM392.533333 648.533333c-10.24 0-17.066667-6.826667-17.066666-17.066666v-238.933334c0-10.24 6.826667-17.066667 17.066666-17.066666s17.066667 6.826667 17.066667 17.066666v238.933334c0 10.24-6.826667 17.066667-17.066667 17.066666z" fill="" p-id="4203"></path>
    <path d="M494.933333 477.866667h-102.4c-10.24 0-17.066667-6.826667-17.066666-17.066667s6.826667-17.066667 17.066666-17.066667h102.4c10.24 0 17.066667 6.826667 17.066667 17.066667s-6.826667 17.066667-17.066667 17.066667zM597.333333 580.266667c-10.24 0-17.066667-6.826667-17.066666-17.066667v-204.8c0-10.24 6.826667-17.066667 17.066666-17.066667s17.066667 6.826667 17.066667 17.066667v204.8c0 10.24-6.826667 17.066667-17.066667 17.066667z" fill="" p-id="4204"></path>
    <path d="M597.333333 546.133333h-102.4c-10.24 0-17.066667-6.826667-17.066666-17.066666s6.826667-17.066667 17.066666-17.066667h102.4c10.24 0 17.066667 6.826667 17.066667 17.066667s-6.826667 17.066667-17.066667 17.066666zM256 273.066667h-170.666667c-10.24 0-17.066667-6.826667-17.066666-17.066667v-170.666667c0-10.24 6.826667-17.066667 17.066666-17.066666h170.666667c10.24 0 17.066667 6.826667 17.066667 17.066666v170.666667c0 10.24-6.826667 17.066667-17.066667 17.066667zM102.4 238.933333h136.533333V102.4H102.4v136.533333zM1006.933333 341.333333h-307.2c-10.24 0-17.066667-6.826667-17.066666-17.066666v-307.2c0-10.24 6.826667-17.066667 17.066666-17.066667h307.2c10.24 0 17.066667 6.826667 17.066667 17.066667v307.2c0 10.24-6.826667 17.066667-17.066667 17.066666zM716.8 307.2h273.066667V34.133333h-273.066667v273.066667z" fill="" p-id="4205"></path>
    <path d="M938.666667 273.066667h-170.666667c-10.24 0-17.066667-6.826667-17.066667-17.066667v-170.666667c0-10.24 6.826667-17.066667 17.066667-17.066666h170.666667c10.24 0 17.066667 6.826667 17.066666 17.066666v170.666667c0 10.24-6.826667 17.066667-17.066666 17.066667zM785.066667 238.933333h136.533333V102.4h-136.533333v136.533333zM324.266667 1024h-307.2c-10.24 0-17.066667-6.826667-17.066667-17.066667v-307.2c0-10.24 6.826667-17.066667 17.066667-17.066666h307.2c10.24 0 17.066667 6.826667 17.066666 17.066666v307.2c0 10.24-6.826667 17.066667-17.066666 17.066667zM34.133333 989.866667h273.066667v-273.066667H34.133333v273.066667z" fill="" p-id="4206"></path>
    <path d="M256 955.733333h-170.666667c-10.24 0-17.066667-6.826667-17.066666-17.066666v-170.666667c0-10.24 6.826667-17.066667 17.066666-17.066667h170.666667c10.24 0 17.066667 6.826667 17.066667 17.066667v170.666667c0 10.24-6.826667 17.066667-17.066667 17.066666zM102.4 921.6h136.533333v-136.533333H102.4v136.533333z" fill="" p-id="4207"></path>
</svg>