<svg xmlns:xlink="http://www.w3.org/1999/xlink" xmlns="http://www.w3.org/2000/svg" version="1.1" viewBox="0 0 800 800">
    <title>3.Scheduler </title>
    <desc>Created with Sketch.</desc>
    <defs>
        <path id="path-1" d="M230.698749,41.5192359 C42.1399154,70.8942359 -6.64485087,167.431538 0.69874946,262.700109 C8.04234979,357.96868 108.656605,378.921622 270.053822,371.07202 C431.451039,374.166042 589.901504,402.292594 639.761351,391.740301 C689.621199,381.188007 762.42441,265.674007 707.149589,189.846622 C651.874768,114.019236 628.910073,161.144237 574.488929,59.0192359 C520.067784,-43.1057649 419.257584,12.1442359 230.698749,41.5192359 Z"></path>
        <ellipse ry="170.15626" rx="169.991639" cy="170.15626" cx="170.289307" id="path-3"></ellipse>
        <circle r="143.099997" cy="143.099997" cx="143.099997" id="path-5"></circle>
        <path id="path-7" d="M12.8428928,5.38332128 L11.0507676,27.0919563 L5.21615096,27.0919563 L5.21615096,33.4256525 L11.0507676,33.4256525 L0.0558603399,141.832346 L50.7254369,141.832346 L38.3785622,33.4256525 L45.0134429,33.4256525 L45.0134429,27.0919563 L37.3888707,27.0919563 L37.3888707,5.38332128 C35.1576099,1.92518446 31.1582026,0.196116056 25.3906486,0.196116056 C19.6230947,0.196116056 15.4405094,1.92518446 12.8428928,5.38332128 Z"></path>
        <rect rx="16.9400019" height="202.221273" width="179.98752" y="0" x="0" id="path-9"></rect>
        <path id="path-11" d="M161.407142,0.0438714978 C186.020727,9.66461188 200.696917,16.0101303 205.435712,19.0804269 C212.543905,23.6858716 231.454027,88.4270182 237.777157,110.685456 C244.100288,132.943894 241.179603,155.383918 227.129426,157.891005 C217.762641,159.562397 203.546949,157.626579 184.482349,152.083553 L184.482349,152.083553 L184.482349,169.111128 L90.2301674,169.111128 L93.8487325,89.178143 C84.2609215,113.586011 76.3177553,127.488574 70.0192338,130.885832 C63.7207123,134.283091 40.3809677,134.737783 1.42108547e-14,132.249908 L1.42108547e-14,132.249908 L1.42108547e-14,100.829409 L1.42108547e-14,100.829409 L47.9033544,100.829409 C53.5454044,100.829409 79.467016,32.5958644 85.9604971,21.4337069 C90.2894845,13.9922686 106.126659,7.41320265 133.47202,1.69650907 L133.47202,1.69650907 Z M190.803344,77.4252937 L184.556468,118.720292 L205.749987,120.863725 L190.803344,77.4252937 Z"></path>
        <path id="path-13" d="M36.1326228,52.1757156 C33.574088,39.2908624 42.3695774,31.609612 48.1639849,26.4355423 C50.9216442,23.9731125 51.3168685,17.5650049 47.1436471,17.0756007 C44.3614995,16.7493313 42.2048754,17.674102 40.6737748,19.8499127 C32.8129825,18.3286333 26.7110734,16.5766059 22.3680475,14.5938305 C18.0250216,12.6110552 13.1885061,7.74644502 7.85850113,7.10542736e-15 C6.03691173,1.5402749 4.76995504,2.85416359 4.05763105,3.94166608 C2.95070888,5.63160018 2.16333437,6.77272731 1.28651102,10.0090579 C-0.363204119,16.3591717 -4.2207855,56.5405326 19.4834522,54.8072428 C23.5558969,62.7364596 24.9507576,68.5418659 23.6680345,72.2234616 C21.7439499,77.7458551 8.1037252,92.7309811 11.8840147,103.027899 C15.6643042,113.324817 36.0147587,107.502783 43.6907334,92.5897923 C48.8080499,82.6477988 51.5820723,74.2186012 52.0128007,67.3021994 C43.1317053,65.8077789 37.8383127,60.7656176 36.1326228,52.1757156 Z"></path>
        <path id="path-15" d="M46.9106743,36.1768127 C54.8288656,30.5326104 53.6038328,21.3297362 47.8204546,21.3297362 C42.0370764,21.3297362 42.9031006,32.7559194 41.5125714,32.5685584 C40.5855519,32.443651 40.3227665,30.2410033 40.7242151,25.9606151 C37.8193451,25.0633432 36.1182447,22.1950415 35.620914,17.35571 C18.7752612,16.6400009 9.55034626,10.8547642 7.9461692,-2.13162821e-14 C5.17380538,3.25340132 2.88579034,5.14545976 1.0821241,5.67617532 C-0.667580157,26.8887745 -0.295440221,41.7529403 2.19854391,50.2686728 C5.27736714,60.781344 8.94209203,62.3929578 21.6402172,60.5740028 C23.9297133,69.7500327 23.5706916,75.8854605 20.563152,78.9802864 C16.0518426,83.6225251 8.07780145,95.9183848 23.0262172,99.7920016 C32.9918277,102.374413 44.2573429,94.6667587 56.8227629,76.6690393 L46.9106743,36.1768127 Z"></path>
    </defs>
    <g fill-rule="evenodd" fill="none" stroke-width="1" stroke="none" id="3.Scheduler-">
        <rect height="800" width="800" y="0" x="0"></rect>
        <g id="Calendar-+-Woman-+-Man-Mask" transform="translate(37.000000, 203.000000)">
            <g>
                <mask fill="white" id="mask-2">
                    <use xlink:href="#path-1"></use>
                </mask>
                <use xlink:href="#path-1" fill="#F3F9FF" id="Mask"></use>
                <rect height="208.75" width="462.5" y="-26.25" x="137.5" mask="url(#mask-2)" fill="#D9ECFF" id="Rectangle"></rect>
                <g mask="url(#mask-2)" id="Group-2-+-Group-2-Copy-2-+-Path-85-+-Path-85-Copy-+-Path-88-Mask-2">
                    <g id="Group-2-+-Group-2-Copy-2-+-Path-85-+-Path-85-Copy-+-Path-88-Mask" transform="translate(393.750000, 60.000000)">
                        <g transform="translate(0.181310, 0.000000)">
                            <mask fill="white" id="mask-4">
                                <use xlink:href="#path-3"></use>
                            </mask>
                            <use xlink:href="#path-3" fill="#D9ECFF" id="Mask"></use>
                            <g mask="url(#mask-4)" id="Group-2">
                                <g transform="translate(186.740111, 95.663888)">
                                    <path fill="#A6D1FF" id="Path-86" d="M47.9016559,96.9487984 C46.4016436,60.8440234 38.9996962,36.2900556 25.6958135,23.286895 C37.7123835,46.9691989 40.1675441,71.5231666 33.0612952,96.9487984 C25.9550463,122.37443 30.9018332,122.37443 47.9016559,96.9487984 Z"></path>
                                    <g fill="none" stroke-width="1" id="Group">
                                        <path fill="#9DC9F8" id="Path-87" d="M28.9543573,28.8417098 C23.0089569,25.0261881 17.1511258,23.9215626 11.380864,25.5278335 C5.61060211,27.1341043 2.20866659,31.1078336 1.17505741,37.4490214 C4.49585696,34.7673331 8.44265007,32.662359 13.0154367,31.1340993 C17.5882234,29.6058396 22.9011969,28.8417098 28.9543573,28.8417098 Z"></path>
                                        <path transform="translate(35.027495, 16.304925) scale(-1, 1) rotate(73.000000) translate(-35.027495, -16.304925)" fill="#9DC9F8" id="Path-87-Copy-3" d="M48.7514547,13.9034243 C42.9001377,10.0607989 37.1241359,8.96501736 31.4234494,10.6160797 C25.7227629,12.2671421 22.3494579,16.3078091 21.3035346,22.7380807 C24.5914819,20.0070834 28.4948032,17.8579973 33.0134985,16.2908224 C37.5321938,14.7236475 42.7781792,13.9278481 48.7514547,13.9034243 Z"></path>
                                        <path transform="translate(36.670798, 22.468975) scale(-1, 1) rotate(49.000000) translate(-36.670798, -22.468975)" fill="#9DC9F8" id="Path-87-Copy-4" d="M46.8909151,20.6697945 C42.5463168,17.8801208 38.2515969,17.0943666 34.0067554,18.3125319 C29.7619139,19.5306973 27.2432221,22.4867874 26.4506799,27.1808024 C28.9029341,25.1804508 31.8117047,23.6031991 35.1769916,22.4490475 C38.5422786,21.2948958 42.4469197,20.7018115 46.8909151,20.6697945 Z"></path>
                                        <path transform="translate(15.549774, 23.912299) rotate(30.000000) translate(-15.549774, -23.912299)" fill="#9DC9F8" id="Path-87-Copy" d="M29.4166003,21.4886841 C23.5168395,17.6963472 17.6871441,16.6242829 11.9275139,18.2724912 C6.16788378,19.9206995 2.75302865,23.9302332 1.68294854,30.3010924 C5.00876556,27.5888363 8.95466416,25.4514939 13.5206443,23.8890651 C18.0866245,22.3266364 23.3852765,21.5265094 29.4166003,21.4886841 Z"></path>
                                        <path transform="translate(28.228188, 15.012916) scale(-1, 1) rotate(102.000000) translate(-28.228188, -15.012916)" fill="#9DC9F8" id="Path-87-Copy-2" d="M41.9132437,12.7500585 C36.0385695,8.8636347 30.258328,7.72634233 24.5725192,9.33818142 C18.8867104,10.9500205 15.5435812,14.9694355 14.5431314,21.3964265 C17.8100896,18.686915 21.6961184,16.5640346 26.2012178,15.0277852 C30.7063172,13.4915357 35.9436592,12.7322935 41.9132437,12.7500585 Z"></path>
                                    </g>
                                </g>
                            </g>
                            <g mask="url(#mask-4)" id="Group-2-Copy-2">
                                <g id="Group-2-Copy" transform="translate(214.941488, 51.752595)">
                                    <g>
                                        <path fill="#A6D1FF" id="Path-86" d="M66.4442324,136.252365 C64.3635702,85.5105194 54.0963528,51.0022404 35.6425801,32.7275282 C52.3107255,66.010766 55.7162708,100.519045 45.8592159,136.252365 C36.0021609,171.985686 42.8638331,171.985686 66.4442324,136.252365 Z"></path>
                                        <g fill="#9DC9F8" id="Group">
                                            <path id="Path-87" d="M40.1624956,40.5342948 C31.9156499,35.17194 23.7902713,33.6194935 15.7863597,35.8769552 C7.78244809,38.1344169 3.0636343,43.7191176 1.62991835,52.6310571 C6.23618869,48.8621978 11.7107727,45.9038559 18.0536703,43.7560315 C24.396568,41.608207 31.7661764,40.5342948 40.1624956,40.5342948 Z"></path>
                                            <path transform="translate(48.553644, 22.915767) scale(-1, 1) rotate(73.000000) translate(-48.553644, -22.915767)" id="Path-87-Copy-3" d="M67.7972803,19.6823772 C59.5632948,14.3163169 51.4491011,12.7650795 43.4546991,15.0286648 C35.4602971,17.2922501 30.7453998,22.886102 29.3100071,31.8102205 C33.9117802,28.03462 39.380419,25.0702474 45.7159234,22.9171027 C52.0514278,20.7639581 59.4118801,19.6857162 67.7972803,19.6823772 Z"></path>
                                            <path transform="translate(50.826345, 31.561088) scale(-1, 1) rotate(49.000000) translate(-50.826345, -31.561088)" id="Path-87-Copy-4" d="M65.0797046,29.1849142 C58.9827302,25.2539986 52.9736282,24.1189569 47.0523985,25.7797891 C41.1311689,27.4406213 37.6380314,31.5414668 36.5729861,38.0823254 C39.9819393,35.314111 44.0327211,33.1402498 48.7253315,31.5607418 C53.4179419,29.9812339 58.8693996,29.1892913 65.0797046,29.1849142 Z"></path>
                                            <path transform="translate(21.607008, 33.572152) rotate(30.000000) translate(-21.607008, -33.572152)" id="Path-87-Copy" d="M40.8701759,30.3357249 C32.6295675,24.9765397 24.5080331,23.4285447 16.5055728,25.6917399 C8.50311245,27.954935 3.78253465,33.5445306 2.34383939,42.4605266 C6.95078982,38.6874883 12.4252495,35.7247212 18.7672183,33.5722254 C25.1091872,31.4197296 32.4768397,30.3408961 40.8701759,30.3357249 Z"></path>
                                            <path transform="translate(39.176016, 21.086972) scale(-1, 1) rotate(102.000000) translate(-39.176016, -21.086972)" id="Path-87-Copy-2" d="M58.4143344,17.8725401 C50.1771557,12.500492 42.0623823,10.9435795 34.0700143,13.2018024 C26.0776463,15.4600254 21.3668744,21.0509719 19.9376985,29.9746419 C24.5366022,26.2019788 30.0028768,23.2411889 36.3365225,21.0922721 C42.6701682,18.9433554 50.0294388,17.8701113 58.4143344,17.8725401 Z"></path>
                                        </g>
                                    </g>
                                </g>
                            </g>
                            <path mask="url(#mask-4)" fill="#C3E0FF" id="Path-85" d="M346.547918,223.422167 C312.711263,196.43599 283.731776,182.942901 259.609458,182.942901 C235.487139,182.942901 206.507652,196.43599 172.670997,223.422167 L346.547918,223.422167 Z"></path>
                            <path mask="url(#mask-4)" fill="#C3E0FF" id="Path-85-Copy" d="M111.536436,223.422167 C77.6997809,196.43599 48.7202939,182.942901 24.5979753,182.942901 C0.475656738,182.942901 -28.5038302,196.43599 -62.3404855,223.422167 L111.536436,223.422167 Z"></path>
                            <path mask="url(#mask-4)" fill="#F3F9FF" id="Path-88" d="M3.84247546,212.021584 L212.435924,212.021584 C214.967822,212.399907 216.723023,214.05347 217.701529,216.982273 C219.169287,221.375478 226.619391,222.965328 229.905248,216.982273 C233.191106,210.999219 237.102632,206.195878 242.050104,207.095265 C246.997576,207.994652 252.135516,219.228327 257.324002,220.08683 C262.512488,220.945334 267.685202,215.403686 269.965313,212.021584 C272.245425,208.639483 278.939444,204.505554 285.236059,211.362907 C291.532674,218.220259 294.324195,220.565318 302.585676,215.782258 C310.847156,210.999198 311.719506,207.095265 318.150897,207.095265 C324.582288,207.095265 328.041226,218.295239 332.650836,219.191035 L327.400948,248.97609 C240.078851,371.596253 142.605542,382.257164 34.9810213,280.958822 L24.8291526,262.8409 L3.84247546,225.8519 L3.84247546,212.021584 Z"></path>
                            <g mask="url(#mask-4)" id="Group-3">
                                <g transform="translate(121.856506, 198.997996)">
                                    <path fill-rule="evenodd" fill="#9DC9F8" stroke="none" id="Rectangle" d="M0,45.9472226 L103.405052,45.9472226 C103.405052,58.9391177 92.8730403,69.4711296 79.8811452,69.4711296 L23.523907,69.4711296 C10.5320119,69.4711296 1.59104827e-15,58.9391177 0,45.9472226 L0,45.9472226 L0,45.9472226 Z"></path>
                                    <line fill="none" stroke-width="1.23750008" stroke="#9DC9F8" id="Path-89" y2="53.4460288" x2="49.9255896" y1="0" x1="49.9255896"></line>
                                    <path fill-rule="evenodd" fill="#9DC9F8" stroke="none" id="Path-90" d="M49.9255896,-2.84217094e-14 C23.5177545,11.1788641 10.313837,25.629184 10.313837,43.3509599 L49.7078542,42.7242583 L49.9255896,-2.84217094e-14 Z"></path>
                                </g>
                            </g>
                            <ellipse ry="32.9334698" rx="32.9016075" cy="98.8004093" cx="118.881964" mask="url(#mask-4)" fill="#C3E0FF" id="Oval"></ellipse>
                            <path mask="url(#mask-4)" fill="#FFFFFF" id="Path-91" d="M45.1365327,132.054377 L125.148937,132.054377 C125.869327,120.186991 121.750572,113.061349 112.792672,110.677453 C108.814378,96.8035409 101.166015,89.697571 89.8475819,89.3595437 C72.8699329,88.8525028 65.4371456,103.130067 65.4371456,112.030607 C57.3020294,111.718742 51.6659765,113.753124 48.5289867,118.133752 C46.2673507,121.291333 45.1365327,125.931541 45.1365327,132.054377 Z"></path>
                        </g>
                    </g>
                </g>
                <g mask="url(#mask-2)" id="Path-88">
                    <g transform="translate(131.500000, 191.000000) scale(-1, 1) translate(-131.500000, -191.000000) translate(-12.000000, 47.500000)">
                        <mask fill="white" id="mask-6">
                            <use xlink:href="#path-5"></use>
                        </mask>
                        <use xlink:href="#path-5" fill-rule="evenodd" fill="#D9ECFF" stroke="none" id="Mask"></use>
                        <g mask="url(#mask-6)" fill-rule="evenodd" fill="none" stroke-width="1" stroke="none" id="Group-4">
                            <g transform="translate(224.550000, 80.549999) scale(-1, 1) translate(-224.550000, -80.549999) translate(175.050000, 49.549999)">
                                <circle r="30.5999994" cy="30.5999994" cx="68.3999986" fill="#C3E0FF" id="Oval"></circle>
                                <path fill="#FFFFFF" id="Path-91" d="M-1.84741111e-13,61.1999988 L73.7258862,61.1999988 C74.3896753,50.1962355 70.5945281,43.5891471 62.3404445,41.3787337 C58.674722,28.5144648 51.627285,21.9256163 41.1981337,21.6121882 C25.5544066,21.1420461 18.7056081,34.3805922 18.7056081,42.6334147 C11.2096623,42.3442452 6.01643,44.230579 3.1259113,48.2924162 C1.04197043,51.2202116 -1.84741111e-13,55.5227391 -1.84741111e-13,61.1999988 Z"></path>
                            </g>
                        </g>
                        <g mask="url(#mask-6)" fill-rule="evenodd" fill="none" stroke-width="1" stroke="none" id="Path-93">
                            <g transform="translate(159.399997, 29.799999)">
                                <mask fill="white" id="mask-8">
                                    <use xlink:href="#path-7"></use>
                                </mask>
                                <use xlink:href="#path-7" fill-rule="evenodd" fill="#F7FBFF" stroke="none" id="Mask"></use>
                                <path mask="url(#mask-8)" fill-rule="evenodd" fill="#B6D8FE" stroke="none" id="Path-93" d="M12.0642861,8.53119024 L25.3906486,8.53119024 L25.3906486,28.6091514 L1.93648377,28.6091514 L1.93648377,33.433017 L25.3906486,33.433017 L24.2238832,65.0369224 L4.41377343,65.0369224 L0.0558603399,100.775006 L21.5238832,100.775006 C23.015052,100.775006 24.2238832,101.983837 24.2238832,103.475006 L24.2238832,133.986555 L24.2238832,133.986555 L17.6325965,133.986555 L17.6325965,125.514389 C17.6325965,123.29253 15.8314242,121.491358 13.6095656,121.491358 C11.3877071,121.491358 9.58653479,123.29253 9.58653479,125.514389 L9.58653479,133.986555 L9.58653479,133.986555 L-1.58520712,133.986555 L-3.69999995,145.221905 L53.6962433,145.221905 L52.3885189,116.808309 L42.9396629,37.9495178 L49.4762331,37.9495178 L48.006411,22.5728127 L41.6524572,19.9320575 L39.1567007,-1.30683692 L13.0815514,-3.69999995 L7.34042236,1.97615324 L12.0642861,8.53119024 Z"></path>
                            </g>
                        </g>
                        <path mask="url(#mask-6)" fill-rule="evenodd" fill="#C3E0FF" stroke="none" id="Path-85" d="M316.799997,204.860823 C281.771782,173.886939 251.771782,158.399997 226.799997,158.399997 C201.82821,158.399997 171.82821,173.886939 136.799997,204.860823 L316.799997,204.860823 Z"></path>
                        <path mask="url(#mask-6)" fill-rule="evenodd" fill="#B6D8FE" stroke="none" id="Path-85-Copy-2" d="M251.999999,215.660823 C216.971783,184.686939 186.971783,169.199997 161.999999,169.199997 C137.028211,169.199997 107.028211,184.686939 71.9999986,215.660823 L251.999999,215.660823 Z"></path>
                        <path mask="url(#mask-6)" fill-rule="evenodd" fill="#F7FBFF" stroke="none" id="Path-88" d="M-32.3999994,195.499444 L162.865906,195.499444 C165.236034,195.852552 166.879092,197.395905 167.795078,200.129504 C169.169058,204.229902 176.143157,205.713789 179.219073,200.129504 C182.294988,194.545219 185.956598,190.062019 190.587964,190.901462 C195.21933,191.740906 200.028994,202.225858 204.885975,203.027143 C209.742956,203.828427 214.585173,198.656129 216.719603,195.499444 C218.854032,192.342759 225.120354,188.484355 231.014663,194.884667 C236.908972,201.284979 239.522136,203.47374 247.25577,199.00947 C254.989405,194.5452 255.806018,190.901462 261.826492,190.901462 C267.846966,190.901462 271.084904,201.354961 275.399995,202.191052 L270.485534,229.990939 C188.742659,344.438495 97.4971568,354.388858 -3.25097103,259.842029 L-12.7542121,242.931663 L-32.3999994,208.407971 L-32.3999994,195.499444 Z"></path>
                    </g>
                </g>
                <g mask="url(#mask-2)" id="Calendar">
                    <g transform="translate(240.000000, 46.250000)">
                        <rect rx="16.9400019" height="202.221273" width="179.98752" y="4.62000083" x="4.23500047" fill="#A6D1FF" id="Rectangle-Copy-21"></rect>
                        <g transform="translate(0.000000, 0.385000)" fill="none" stroke-width="1" id="Rectangle">
                            <mask fill="white" id="mask-10">
                                <use xlink:href="#path-9"></use>
                            </mask>
                            <use xlink:href="#path-9" fill="#FFFFFF" id="Mask"></use>
                            <rect height="49.7612555" width="184.222521" y="-11.6462513" x="0" mask="url(#mask-10)" fill="#1F83FF"></rect>
                            <circle r="5.625" cy="20.625" cx="36.875" mask="url(#mask-10)" fill="#FFFFFF" id="Oval"></circle>
                            <circle r="5.625" cy="20.625" cx="146.875" mask="url(#mask-10)" fill="#FFFFFF" id="Oval-Copy-3"></circle>
                        </g>
                        <rect rx="2.11750024" height="23.2925026" width="28.5862532" y="66.0275077" x="9.52875106" opacity="0.300000012" fill="#A6D1FF" id="Rectangle"></rect>
                        <rect rx="2.11750024" height="23.2925026" width="28.5862532" y="66.0275077" x="53.996256" opacity="0.300000012" fill="#A6D1FF" id="Rectangle-Copy-23"></rect>
                        <rect rx="2.11750024" height="23.2925026" width="28.5862532" y="66.0275077" x="98.463761" opacity="0.300000012" fill="#A6D1FF" id="Rectangle-Copy-24"></rect>
                        <rect rx="2.11750024" height="23.2925026" width="28.5862532" y="66.0275077" x="142.931266" opacity="0.300000012" fill="#A6D1FF" id="Rectangle-Copy-25"></rect>
                        <rect rx="2.11750024" height="23.2925026" width="28.5862532" y="105.201262" x="9.52875106" opacity="0.300000012" fill="#A6D1FF" id="Rectangle-Copy-29"></rect>
                        <rect rx="2.11750024" height="23.2925026" width="28.5862532" y="105.201262" x="53.996256" fill="#FFBA00" id="Rectangle-Copy-28"></rect>
                        <rect rx="2.11750024" height="23.2925026" width="28.5862532" y="105.201262" x="98.463761" opacity="0.300000012" fill="#A6D1FF" id="Rectangle-Copy-27"></rect>
                        <rect rx="2.11750024" height="23.2925026" width="28.5862532" y="105.201262" x="142.931266" opacity="0.300000012" fill="#A6D1FF" id="Rectangle-Copy-26"></rect>
                        <rect rx="2.11750024" height="23.2925026" width="28.5862532" y="144.375016" x="9.52875106" opacity="0.300000012" fill="#A6D1FF" id="Rectangle-Copy-33"></rect>
                        <rect rx="2.11750024" height="23.2925026" width="28.5862532" y="144.375016" x="53.996256" opacity="0.300000012" fill="#A6D1FF" id="Rectangle-Copy-32"></rect>
                        <rect rx="2.11750024" height="23.2925026" width="28.5862532" y="144.375016" x="98.463761" opacity="0.300000012" fill="#A6D1FF" id="Rectangle-Copy-31"></rect>
                        <rect rx="2.11750024" height="23.2925026" width="28.5862532" y="144.375016" x="142.931266" opacity="0.300000012" fill="#A6D1FF" id="Rectangle-Copy-30"></rect>
                    </g>
                </g>
                <g mask="url(#mask-2)" id="Woman">
                    <g transform="translate(189.948749, 255.769236) scale(-1, 1) translate(-189.948749, -255.769236) translate(37.948749, 127.769236)">
                        <path fill-rule="evenodd" fill="#903032" stroke="none" id="Path-2" d="M215.182339,82.7079642 C232.045275,90.9068017 245.209125,89.7456687 254.673888,79.2245652 C268.871033,63.44291 263.17803,47.6384686 248.732561,40.501498 C234.287091,33.3645275 234.287091,24.1114923 227.115496,11.9868756 C219.943901,-0.137741163 189.545753,-8.02861777 179.043186,13.4219883 C173.2999,14.3972937 170.135361,20.0993641 169.549568,30.5281997 C168.235507,38.9886577 163.786994,45.0358613 156.204028,48.6698106 C144.82958,54.1207346 144.00526,77.2991748 166.064086,74.0612131 C162.090118,95.7902521 169.549429,106.654772 188.442017,106.654772 C207.334606,106.654772 216.248047,98.6725024 215.182339,82.7079642 Z"></path>
                        <g transform="translate(0.000000, 85.221065)" fill-rule="evenodd" fill="none" stroke-width="1" stroke="none" id="Body">
                            <g transform="translate(62.403190, 0.000000)" id="Path-6">
                                <mask fill="white" id="mask-12">
                                    <use xlink:href="#path-11"></use>
                                </mask>
                                <use xlink:href="#path-11" fill="#1F83FF" id="Combined-Shape"></use>
                                <line mask="url(#mask-12)" stroke-width="1.25" stroke="#053947" id="Path-17" y2="90.2627523" x2="94.6653367" y1="49.4632329" x1="104.493167"></line>
                                <path mask="url(#mask-12)" fill="#FFFFFF" d="M140.759798,83.8308155 C140.759798,67.3273698 157.922674,33.0309947 163.419505,13.0136508 C165.313984,6.11468286 164.094197,1.41088487 159.760141,-1.09774316 C146.535533,-5.88074698 138.324226,-5.05928241 135.12622,1.36665053 C126.812011,10.1008585 121.538915,16.7898773 119.306933,21.4337069 C114.248136,31.9589645 111.901315,43.1468976 109.394341,47.8945022 C101.504633,62.8357097 94.9844586,70.103234 93.4656262,77.6657464 C92.7403683,81.2769225 94.4160866,86.7245143 96.1470666,91.0194943 C102.260493,106.188382 103.835472,132.218927 100.872006,169.111128 L140.759798,169.111128 C144.076751,164.237505 145.735227,155.540978 145.735227,143.021546 C145.735227,124.242399 140.759798,100.334261 140.759798,83.8308155 Z"></path>
                                <line mask="url(#mask-12)" stroke-width="1.25" stroke="#053947" id="Path-18" y2="109.457458" x2="57.7934205" y1="100.829409" x1="47.9033544"></line>
                            </g>
                            <g transform="translate(0.000000, 93.641038)" id="Right-Hand">
                                <path fill="#FFA990" id="Path-4" d="M62.4031898,14.2797492 C56.5547295,14.9646402 53.1710951,14.8674293 52.2522867,13.9881166 C50.874074,12.6691476 42.9426739,5.63570502 42.1480077,4.99528076 C41.6182303,4.56833125 37.5808104,2.90323766 30.0357481,0 C28.9361402,1.53777178 28.7968659,3.20286537 29.6179251,4.99528076 C30.0001651,5.82973061 32.2259582,7.20099795 36.2953046,9.10908279 L39.3344709,13.0524472 L5.69577178,13.0524472 C3.04281457,13.0963695 1.71633597,13.7997382 1.71633597,15.1625533 C1.71633597,16.5253684 3.04281457,17.206776 5.69577178,17.206776 L18.7023008,19.3441765 L3.46959988,19.838054 C1.15653329,20.1489264 -5.68434189e-14,20.8377497 -5.68434189e-14,21.9045237 C-5.68434189e-14,22.9712977 1.15653329,23.6148447 3.46959988,23.8351647 L19.282053,26.2104788 L6.64810329,26.5704924 C5.17193407,26.70397 4.43384946,27.3839437 4.43384946,28.6104135 C4.43384946,29.8368833 5.17193407,30.4501182 6.64810329,30.4501182 L20.4279219,32.1489064 L11.3038846,33.3588684 C10.0902163,33.6665721 9.48338212,34.280535 9.48338212,35.200757 C9.48338212,36.1209791 10.0902163,36.5810901 11.3038846,36.5810901 C22.7888932,38.0967989 30.9475239,38.7474578 35.7797765,38.5330668 C43.0281555,38.2114803 48.7014826,37.6722826 55.0324196,34.6410002 L62.4031898,34.6410002 L62.4031898,14.2797492 Z"></path>
                                <line stroke-width="1.25" stroke="#4C1819" id="Path-7" y2="19.7581585" x2="21.8301151" y1="18.3131531" x1="12.0563004"></line>
                                <line stroke-width="1.25" stroke="#4C1819" id="Path-8" y2="26.592585" x2="21.8301151" y1="25.2992393" x1="12.7802533"></line>
                                <line stroke-width="1.25" stroke="#4C1819" id="Path-9" y2="32.1489064" x2="21.8301151" y1="31.4303685" x1="14.3016192"></line>
                                <path stroke-width="1.25" stroke="#4C1819" id="Path-10" d="M22.5804197,16.7862767 C21.3353869,23.2436277 21.4409144,29.2915634 22.8970024,34.9300839"></path>
                                <path stroke-width="1.25" stroke="#4C1819" id="Path-11" d="M39.9499484,33.3300562 C34.9969927,26.9301296 34.9969927,20.9938516 39.9499484,15.5212223 C41.9394657,21.7813541 45.821759,24.650899 51.5968282,24.1298569"></path>
                            </g>
                            <g transform="translate(158.550256, 105.420430)" id="Left-Hand">
                                <path fill="#FFA990" id="Path-5" d="M54.1297645,12.8776465 C46.3321007,8.03137416 42.1808818,5.48986968 41.6761079,5.25313303 C41.2878062,5.07102132 37.8353269,4.28574481 32.0591574,2.31142327 C30.9041047,1.91662089 29.0525621,1.14614647 26.5045298,0 C25.4049016,2.26682579 25.4049016,4.13623846 26.5045298,5.60823801 C27.604158,7.08023756 30.6563771,8.51115138 35.6611871,9.90097947 L12.8407014,9.90097947 L6.52846266,9.90097947 C4.72758739,9.90097947 3.82714975,10.443279 3.82714975,11.5278781 C3.82714975,12.6124772 4.72758739,13.3342422 6.52846266,13.693173 L18.6035942,16.2024831 L2.52728104,17.1542534 C0.842427014,17.3130933 0,18.0407052 0,19.3370892 C0,20.6334731 0.842427014,21.3548499 2.52728104,21.5012196 L20.1232356,23.3731132 L6.52846266,24.3451862 C4.90431978,24.4747546 4.09224834,25.1609773 4.09224834,26.4038543 C4.09224834,27.6467312 4.90431978,28.3141313 6.52846266,28.4060544 L21.875705,29.2279195 L11.6659024,31.7113552 C10.3444858,32.0999954 9.6837775,32.7051559 9.6837775,33.5268366 C9.6837775,34.3485173 10.3444858,34.7393502 11.6659024,34.6993355 C22.0681384,34.6993355 28.5636618,34.6993355 31.1524725,34.6993355 C33.7412832,34.6993355 41.4003806,33.8340007 54.1297645,32.103331 L59.1334193,33.5528279 L59.1334193,14.3271433 L54.1297645,12.8776465 Z"></path>
                                <line stroke-width="1.25" stroke="#4C1819" id="Path-12" y2="10.696155" x2="37.8625961" y1="9.38793577" x1="33.9736039"></line>
                                <line stroke-width="1.25" stroke="#4C1819" id="Path-27" y2="15.9468197" x2="22.0488057" y1="16.7552006" x1="11.357582"></line>
                                <line stroke-width="1.25" stroke="#4C1819" id="Path-28" y2="23.1737349" x2="22.0488057" y1="23.8250664" x1="13.5209309"></line>
                                <line stroke-width="1.25" stroke="#4C1819" id="Path-29" y2="28.6796389" x2="23.3300728" y1="30.8079495" x1="17.385637"></line>
                            </g>
                            <path stroke-width="1.25" stroke="#053947" id="Path-15" d="M288.729392,140.122553 C288.729392,134.67689 285.544146,128.893203 279.173654,122.771491 L217.683676,116.116585 L217.683676,140.122553 L246.885539,152.083553"></path>
                            <line stroke-width="1.25" stroke="#053947" id="Path-34" y2="90.97573" x2="258.384305" y1="69.8629926" x1="250.371023"></line>
                        </g>
                        <g transform="translate(167.987628, 17.962737)" fill-rule="evenodd" fill="none" stroke-width="1" stroke="none" id="Face">
                            <g transform="translate(3.809904, 0.000000)" id="Path-3">
                                <mask fill="white" id="mask-14">
                                    <use xlink:href="#path-13"></use>
                                </mask>
                                <use xlink:href="#path-13" fill="#FFA990" id="Mask"></use>
                                <path mask="url(#mask-14)" fill="#E79279" d="M19.4834522,54.8072428 C23.8320843,53.2281098 27.7122515,51.1211602 31.1239537,48.486394 C29.9113949,64.3345416 26.0312278,73.9167344 19.4834522,77.2329722 C12.9356767,80.5492101 12.9356767,73.073967 19.4834522,54.8072428 Z"></path>
                                <path mask="url(#mask-14)" fill="#FFFFFF" id="Path-19" d="M5.91133317,41.136744 C5.91133317,41.136744 9.54126717,41.136744 16.8011352,41.136744 C15.9001605,43.8583522 13.993228,45.2191564 11.0803376,45.2191564 C6.71100217,45.2191564 5.91133317,41.136744 5.91133317,41.136744 Z"></path>
                                <path mask="url(#mask-14)" stroke-width="1.25" stroke="#4C1819" id="Path-20" d="M9.97247464,25.134408 C6.83846077,31.5791824 5.27145384,35.3233207 5.27145384,36.3668229 C5.27145384,37.4103251 7.81721142,37.6826732 12.9087266,37.1838672"></path>
                                <ellipse ry="1.44949683" rx="1.45077666" cy="23.1919492" cx="17.40932" mask="url(#mask-14)" fill="#4C1819" id="Oval"></ellipse>
                                <ellipse ry="1.44949683" rx="1.45077666" cy="23.1919492" cx="2.90155333" mask="url(#mask-14)" fill="#4C1819" id="Oval-Copy-2"></ellipse>
                                <path mask="url(#mask-14)" stroke-width="1.25" stroke="#4C1819" id="Path-21" d="M1.45077666,15.6127395 C1.45077666,15.6127395 3.37549244,14.2890172 7.3658633,15.6127395"></path>
                                <path mask="url(#mask-14)" stroke-width="1.25" stroke="#4C1819" id="Path-22" d="M14.0131448,16.0433274 C16.6388791,14.5629443 19.5839266,14.7311027 22.8482872,16.5478024"></path>
                                <path mask="url(#mask-14)" stroke-width="1.25" stroke="#903032" id="Path-25" d="M8.42237259,-0.725876058 C12.0780872,12.5740605 22.8295833,19.4326568 40.6768608,19.8499127"></path>
                            </g>
                            <ellipse ry="5.7979873" rx="5.80310665" cy="23.4571439" cx="5.80310665" stroke-width="1.25" stroke="#FFFFFF" id="Oval"></ellipse>
                            <ellipse ry="5.7979873" rx="5.80310665" cy="23.4571439" cx="21.7616499" stroke-width="1.25" stroke="#FFFFFF" id="Oval-Copy"></ellipse>
                            <line stroke-width="1.25" stroke="#FFFFFF" id="Path-13" y2="23.4571439" x2="15.9585433" y1="23.4571439" x1="11.6062133"></line>
                            <line stroke-width="1.25" stroke="#FFFFFF" id="Path-14" y2="19.3682748" x2="44.4867644" y1="23.4571439" x1="27.5647566"></line>
                        </g>
                        <path fill="none" stroke-width="1.25" stroke="#903032" id="Path-23" d="M208.054532,1.37451313 C219.217898,1.37451313 227.948496,7.75305874 234.246326,20.51015 C243.693071,39.6457868 251.350725,36.2225271 259.336002,44.3165143 C267.32128,52.4105014 267.123117,70.107392 253.715673,78.4940143"></path>
                        <path fill="none" stroke-width="1.25" stroke="#903032" id="Path-24" d="M171.797531,22.2216358 C169.299222,35.3654319 164.307673,43.6975092 156.822886,47.2178679 C145.595705,52.4984059 143.670679,62.1556228 152.581704,70.3248186"></path>
                        <path fill="none" stroke-width="1.25" stroke="#903032" id="Path-26" d="M219.866361,45.4858706 C219.866361,46.2732272 200.486448,58.1303978 208.054532,75.7670588 C215.622616,93.4037197 256.143995,92.1344994 256.143995,72.0718049"></path>
                    </g>
                </g>
                <g mask="url(#mask-2)" id="Man">
                    <g transform="translate(321.000000, 113.750000)">
                        <g transform="translate(0.000000, 24.640143)" id="Body">
                            <g transform="translate(83.302876, 94.849195) rotate(52.000000) translate(-83.302876, -94.849195) translate(-12.697124, 64.349195)" id="Right-Hand">
                                <path fill="#FFA990" id="Path-4" d="M69.1926579,32.4653865 C62.7078851,33.2247936 58.9561112,33.1170061 57.9373364,32.1420242 C56.4091741,30.6795513 47.6148376,22.8808701 46.7337117,22.1707677 C46.1462945,21.697366 41.6696032,19.8511102 33.303638,16.6320003 C32.6960772,17.5710764 32.8474921,19.0343296 33.7578826,21.0217598 C34.1817102,21.9469978 36.3438275,23.8504617 40.2442344,26.7321514 L43.614062,31.104554 L6.31547185,31.104554 C3.37387285,31.153255 1.90307336,31.9331502 1.90307336,33.4442397 C1.90307336,34.9553291 3.37387285,35.7108738 6.31547185,35.7108738 L20.7371115,38.0808235 L3.84709241,38.6284349 C1.28236414,38.9731303 5.45696821e-12,39.7368975 5.45696821e-12,40.9197365 C5.45696821e-12,42.1025755 1.28236414,42.8161405 3.84709241,43.0604314 L21.3799407,45.6941796 L7.37141704,46.0933627 C5.73464059,46.2413627 4.91625236,46.9953175 4.91625236,48.3552273 C4.91625236,49.715137 5.73464059,50.3950919 7.37141704,50.3950919 L22.6504802,52.2787083 L12.5337475,53.6203141 C11.188032,53.961496 10.5151743,54.6422581 10.5151743,55.6626003 C10.5151743,56.6829425 11.188032,57.1931136 12.5337475,57.1931136 C25.2683252,58.8737316 34.314615,59.5951822 39.6726168,59.3574654 C47.7096195,59.0008903 54.0002048,58.4030279 61.0199479,55.041942 L69.1926579,55.041942 C135.320343,60.9262434 171.986965,62.0347901 179.192523,58.3675821 C186.398082,54.700374 190.419584,36.4778019 191.257029,3.69986577 L154.314359,0.361075382 L154.812845,26.2113195 L69.1926579,32.4653865 Z"></path>
                                <line stroke-width="1.38600002" stroke="#4C1819" id="Path-7" y2="38.5398468" x2="24.205232" y1="36.9376248" x1="13.3680261"></line>
                                <line stroke-width="1.38600002" stroke="#4C1819" id="Path-8" y2="46.117859" x2="24.205232" y1="44.6837973" x1="14.1707451"></line>
                                <line stroke-width="1.38600002" stroke="#4C1819" id="Path-9" y2="52.2787083" x2="24.205232" y1="51.4819934" x1="15.8576356"></line>
                                <path stroke-width="1.38600002" stroke="#4C1819" id="Path-10" d="M25.0371698,35.2446242 C23.6566773,42.404535 23.7736863,49.1104863 25.3881967,55.3624779"></path>
                                <path stroke-width="1.38600002" stroke="#4C1819" id="Path-11" d="M44.2965035,53.5883671 C38.8046661,46.4921284 38.8046661,39.9099833 44.2965035,33.8419318 C46.5024803,40.7831661 50.8071671,43.9649175 57.210564,43.3871861"></path>
                            </g>
                            <path fill="#13BB84" id="Path-99" d="M300.362432,258.275397 L289.737132,166.377271 L334.85845,154.862334 C316.87788,110.166306 304.979208,85.6549767 299.162432,81.3283454 C292.544491,76.4057915 275.838607,72.6553231 249.04478,70.0769402 C213.314564,72.0203291 192.891244,74.363168 187.77482,77.105457 C182.658397,79.8477459 163.77863,96.4220636 131.135521,126.82841 L158.619886,161.049053 L179.229211,149.772508 C180.029211,222.107767 180.429211,258.275397 180.429211,258.275397 C180.429211,258.275397 220.406952,258.275397 300.362432,258.275397 Z"></path>
                            <g transform="translate(244.671186, 191.487068) scale(-1, 1) rotate(42.000000) translate(-244.671186, -191.487068) translate(159.671186, 97.487068)" id="Hand">
                                <path fill="#FFA990" id="Path-42" d="M97.693999,88.9813046 C101.880094,76.623702 104.185089,70.0963177 104.608985,69.3991516 C104.841075,69.0174434 106.75298,68.2729316 109.470666,65.7303111 C110.967998,64.3294332 113.717151,61.2509485 117.718126,56.4948569 C119.112032,58.3763942 119.808986,60.063836 119.808986,61.5571823 C119.808986,63.0505286 117.9979,66.0131014 114.375727,70.4449007 C132.530652,66.2778304 142.736092,63.6498245 144.992048,62.5608829 C148.375982,60.9274706 151.930077,57.5470238 152.741351,56.4948569 C153.552625,55.44269 155.926889,51.7307179 157.677356,52.7654002 C159.632302,53.9209482 158.567289,56.2854999 157.166981,58.6919596 C156.233442,60.2962661 153.850335,62.962472 150.017657,66.6905772 L146.631784,69.1190851 C149.326846,68.1913484 151.282721,67.2615617 152.499408,66.3297251 C154.32444,64.9319702 159.520417,60.7545557 161.024809,59.0804664 C162.5292,57.4063771 164.43886,54.1324822 166.538498,55.6246636 C168.638135,57.116845 166.221311,59.9807558 165.103208,61.7937331 C163.985105,63.6067105 158.662101,69.3477169 156.941419,70.4449007 C155.794297,71.1763565 154.216782,72.3822858 152.208873,74.0626884 C155.854528,72.3822858 158.286731,71.1763565 159.505482,70.4449007 C161.333607,69.3477169 163.76484,66.8827204 164.767149,66.0775305 C165.769457,65.2723405 167.408163,63.1274031 169.122642,64.1333906 C170.83712,65.139378 167.83592,68.7946068 166.495155,70.4661859 C165.15439,72.1377651 161.738268,74.7726035 160.117965,76.1659861 C159.037763,77.0949078 156.849316,78.9118615 153.552625,81.6168472 C155.981967,80.7215795 157.689281,80.1664803 158.674567,79.9515496 C159.659854,79.736619 161.143146,79.3139114 163.124445,78.6834269 C164.634418,78.1093369 165.555843,78.2156483 165.888719,79.0023612 C166.388033,80.1824304 154.890257,85.19862 151.61295,85.7005298 C132.56652,88.6174344 126.976236,90.1920162 123.845379,92.6729639 C120.175798,95.5808066 117.054342,98.8556303 114.481011,102.497435 C86.9738819,154.785096 68.635408,183.052533 59.4655895,187.299747 C50.2957709,191.54696 30.7390842,169.98028 0.795529263,122.599705 L34.838995,104.875197 L58.9794567,140.006968 L97.693999,88.9813046 Z"></path>
                                <path stroke-width="1.38600002" stroke="#4C1819" id="Path-43" d="M151.664064,67.2100135 C148.908056,69.2727309 145.452176,71.1294837 141.296424,72.7802721"></path>
                                <path stroke-width="1.38600002" stroke="#4C1819" id="Path-44" d="M156.566106,72.7802721 C152.902541,75.1580167 149.351592,76.908697 145.913259,78.0323132"></path>
                                <path stroke-width="1.38600002" stroke="#4C1819" id="Path-45" d="M156.61457,81.8063797 C153.394471,82.9128562 150.900392,83.7132154 149.132333,84.2074571"></path>
                                <line stroke-width="1.66320009" stroke="#052043" id="Path" y2="59.3817905" x2="141.121323" y1="0.163772429" x1="87.8011804"></line>
                            </g>
                            <line stroke-width="1.66320009" stroke="#052043" id="Path-100" y2="208.265767" x2="294.792889" y1="123.841727" x1="284.104172"></line>
                            <path stroke-width="1.66320009" stroke="#052043" id="Path-101" d="M289.44853,166.053747 C292.536296,165.569684 305.333101,162.350769 327.838948,156.397002"></path>
                        </g>
                        <g transform="translate(192.485655, 0.000000)" id="Head">
                            <path fill="#30150D" id="Path-98" d="M3.56228699,34.6742004 C-1.74401228,23.065242 -1.12220721,16.771415 5.4277022,15.7927194 C4.23451326,9.56524853 6.66523578,5.53889383 12.7198698,3.71365531 C21.8018207,0.975797537 60.4621342,-6.60108848 62.8336735,13.2987995 C73.222656,14.6272207 75.9925005,24.9263158 71.1432072,44.1960847 C65.2274392,61.1124491 58.9763079,71.1723441 52.3898135,74.3757698 C45.803319,77.5791955 29.5274768,64.345339 3.56228699,34.6742004 Z"></path>
                            <g transform="translate(4.158000, 19.404000)" id="Path-102">
                                <mask fill="white" id="mask-16">
                                    <use xlink:href="#path-15"></use>
                                </mask>
                                <use xlink:href="#path-15" fill="#FFA990" id="Mask"></use>
                                <path mask="url(#mask-16)" fill="#E79279" d="M12.5233062,61.111302 C21.4727261,61.4626262 28.5357045,58.4982032 33.7122413,52.2180331 C31.8965024,68.4091485 26.7502914,78.830786 18.2736083,83.4829455 C9.7969252,88.135105 7.88015785,80.6778905 12.5233062,61.111302 Z"></path>
                                <path mask="url(#mask-16)" stroke-width="1.25999999" stroke="#4C1819" id="Path-30" d="M6.3141585,25.1065709 C3.51282105,32.6525932 2.6862154,36.8212958 3.83434153,37.6126787 C4.98246766,38.4040616 6.82296917,38.6082858 9.35584605,38.2253513"></path>
                                <ellipse ry="1.46109279" rx="1.46238287" cy="24.8970922" cx="2.56257329" mask="url(#mask-16)" fill="#4C1819" id="Oval"></ellipse>
                                <ellipse ry="1.46109279" rx="1.46238287" cy="24.8970922" cx="14.666402" mask="url(#mask-16)" fill="#4C1819" id="Oval-Copy-2"></ellipse>
                                <path mask="url(#mask-16)" fill="#FFFFFF" id="Path-31" d="M8.09584606,50.3999997 C5.30015328,50.3999997 3.29276916,48.7161581 2.07369369,45.3484749 C4.16712221,45.9424002 5.9842253,46.2393628 7.52500296,46.2393628 C9.06578061,46.2393628 11.275725,45.9424002 14.1548362,45.3484749 C12.9112022,48.7161581 10.8915388,50.3999997 8.09584606,50.3999997 Z"></path>
                                <path mask="url(#mask-16)" stroke-width="1.25999999" stroke="#4C1819" id="Path-32" d="M11.716948,19.3639065 C14.930745,17.8676673 17.9481607,18.097266 20.769195,20.0527026"></path>
                                <path mask="url(#mask-16)" stroke-width="1.25999999" stroke="#4C1819" id="Path-33" d="M1.10019042,19.22186 C2.5891926,18.2917897 4.33738575,18.4416153 6.34476987,19.6713369"></path>
                            </g>
                        </g>
                    </g>
                </g>
            </g>
        </g>
    </g>
</svg>